<?xml version="1.0" encoding="utf-8"?>
<!-- Generator: Adobe Illustrator 19.0.0, SVG Export Plug-In . SVG Version: 6.00 Build 0)  -->
<!DOCTYPE svg PUBLIC "-//W3C//DTD SVG 1.1//EN" "http://www.w3.org/Graphics/SVG/1.1/DTD/svg11.dtd">
<svg version="1.1" id="Layer_1" xmlns="http://www.w3.org/2000/svg" xmlns:xlink="http://www.w3.org/1999/xlink" x="0px" y="0px"
	 viewBox="493 318.6 204.6 204.7" style="enable-background:new 493 318.6 204.6 204.7;" xml:space="preserve">
<style type="text/css">
	.st0{fill:#FFFFFF;}
</style>
<g>
	<path class="st0" d="M573.7,369.1c0-0.1-0.1-0.2-0.1-0.2l-35.3-35.3c-0.1-0.1-0.2-0.1-0.3,0.1c0,0-10.7,19.1-9.8,31.7
		s14.4,32.9,15.2,34.1h30.4v-30.4H573.7z M573.8,369l21.5,21.5l21.5-21.5c0-0.1,0.1-0.2,0.1-0.2v-50c0-0.1-0.1-0.2-0.3-0.2
		c0,0-21.1,6-29.4,15.5C578.8,343.9,573.9,368.4,573.8,369C573.7,369.1,573.7,369.1,573.8,369L573.8,369
		C573.7,369.1,573.8,369.1,573.8,369C573.8,369.1,573.8,369,573.8,369z M543.3,399.4L543.3,399.4
		C543.3,399.4,543.4,399.5,543.3,399.4C543.4,399.5,543.4,399.5,543.3,399.4C543.4,399.5,543.4,399.5,543.3,399.4
		C543.4,399.5,543.3,399.4,543.3,399.4z M616.8,369v30.4h30.4c0.1,0,0.2-0.1,0.2-0.1l35.3-35.3c0.1-0.1,0.1-0.2-0.1-0.3
		c0,0-19.1-10.7-31.7-9.8C638.1,354.8,617.3,368.7,616.8,369C616.7,369,616.7,369,616.8,369L616.8,369
		C616.7,369,616.7,369,616.8,369L616.8,369z M543.4,399.5L543.4,399.5L543.4,399.5L543.4,399.5z M543.4,399.5
		c-0.1,0-0.1-0.1-0.2-0.1h-50c-0.1,0-0.2,0.1-0.2,0.3c0,0,6,21.1,15.5,29.4c9.6,8.3,33.4,13.1,34.9,13.4l21.5-21.5L543.4,399.5z
		 M543.4,442.5L543.4,442.5C543.4,442.5,543.3,442.5,543.4,442.5L543.4,442.5C543.3,442.5,543.4,442.5,543.4,442.5
		c-0.1,0-0.1,0.1-0.2,0.1L507.8,478c-0.1,0.1-0.1,0.2,0.1,0.3c0,0,19.1,10.7,31.7,9.8c12.6-0.9,32.9-14.3,34.1-15.2v-30.4
		L543.4,442.5L543.4,442.5z M647.2,442.5h-30.4v30.4l0,0c0,0,0,0,0,0.1l0,0v-0.1c0,0.1,0.1,0.1,0.1,0.2l35.4,35.4
		c0.1,0.1,0.2,0.1,0.3-0.1c0,0,10.7-19.1,9.8-31.7C661.5,463.8,647.5,442.9,647.2,442.5L647.2,442.5
		C647.2,442.4,647.2,442.5,647.2,442.5z M697.6,442.2c0,0-6-21.1-15.5-29.4c-9.7-8.4-34.3-13.3-34.9-13.4l0,0l0,0l0,0c0,0,0,0,0.1,0
		l-21.5,21.5l21.5,21.5l0,0l0,0c0.1,0,0.2,0.1,0.2,0.1h50C697.6,442.5,697.6,442.4,697.6,442.2z M573.8,472.9L573.8,472.9
		L573.8,472.9L573.8,472.9L573.8,472.9c0,0.1-0.1,0.1-0.1,0.2v50c0,0.1,0.1,0.2,0.3,0.2c0,0,21.1-6,29.4-15.5
		c8.3-9.6,13.1-33.4,13.4-34.9l-21.5-21.5L573.8,472.9z"/>
</g>
</svg>
